<?xml version="1.0" encoding="UTF-8"?>
<svg width="1200" height="1200" viewBox="0 0 1200 1200" fill="none" xmlns="http://www.w3.org/2000/svg">
  <defs>
    <linearGradient id="bg" x1="70" y1="40" x2="1110" y2="1160" gradientUnits="userSpaceOnUse">
      <stop stop-color="#F78FB3" />
      <stop offset="1" stop-color="#FDE2E4" />
    </linearGradient>
    <linearGradient id="panel" x1="132" y1="126" x2="1080" y2="1080" gradientUnits="userSpaceOnUse">
      <stop stop-color="white" stop-opacity="0.3"/>
      <stop offset="1" stop-color="white" stop-opacity="0.14"/>
    </linearGradient>
  </defs>
  <rect width="1200" height="1200" rx="72" fill="url(#bg)"/>
  <circle cx="980" cy="186" r="176" fill="#C44569" fill-opacity="0.13"/>
  <circle cx="202" cy="1028" r="212" fill="#C44569" fill-opacity="0.1"/>
  <circle cx="1034" cy="906" r="94" fill="white" fill-opacity="0.16"/>
  <rect x="92" y="92" width="1016" height="1016" rx="56" fill="url(#panel)" stroke="white" stroke-opacity="0.42" stroke-width="2"/>
  <rect x="120" y="110" width="204" height="74" rx="37" fill="#C44569" fill-opacity="0.84"/>
  <text x="214" y="157" text-anchor="middle" font-family="Poppins, Arial, sans-serif" font-size="32" font-weight="700" fill="white">Variant</text>
  <rect x="878" y="118" width="170" height="58" rx="29" fill="#FFD166" fill-opacity="0.88"/>
  <text x="963" y="155" text-anchor="middle" font-family="Poppins, Arial, sans-serif" font-size="26" font-weight="700" fill="#C44569">Collector</text>
  <path d="M862 198c-22 20-31 55-18 84 15 34 51 51 84 47-12 25-37 44-73 44-48 0-87-39-87-87 0-40 27-74 64-84 9-2 21-4 30-4Z" fill="#FDE2E4" fill-opacity="0.7"/>
  <ellipse cx="628" cy="916" rx="328" ry="64" fill="#C44569" fill-opacity="0.18"/>
  <ellipse cx="628" cy="900" rx="276" ry="44" fill="white" fill-opacity="0.15"/>
  <path d="M388 806h386v-268H388v268Z" fill="#C44569"/>
  <path d="M774 538l138 78v262L774 806V538Z" fill="#F78FB3" fill-opacity="0.94"/>
  <path d="M388 538l118-72h407l-139 72H388Z" fill="#FFF7F1"/>
  <path d="M774 538l139-72v150l-139-78Z" fill="#FDE2E4" fill-opacity="0.78"/>
  <path d="M388 538l118-72 34 20-101 61-51-9Z" fill="#F78FB3" fill-opacity="0.62"/>
  <path d="M364 442l160 24-79 68-171-26 90-66Z" fill="#FFF7F1" stroke="#C44569" stroke-opacity="0.18" stroke-width="8" stroke-linejoin="round"/>
  <path d="M524 466l247-8-70 78-256-2 79-68Z" fill="white" fill-opacity="0.92" stroke="#C44569" stroke-opacity="0.1" stroke-width="6" stroke-linejoin="round"/>
  <path d="M771 458l142 8-116 76-96-6 70-78Z" fill="#FDE2E4" fill-opacity="0.96" stroke="#C44569" stroke-opacity="0.08" stroke-width="6" stroke-linejoin="round"/>
  <rect x="424" y="574" width="314" height="188" rx="26" fill="white" fill-opacity="0.22"/>
  <rect x="454" y="605" width="254" height="36" rx="18" fill="#C44569" fill-opacity="0.82"/>
  <text x="581" y="629" text-anchor="middle" font-family="Poppins, Arial, sans-serif" font-size="21" font-weight="700" fill="white">CO TOYVERSE</text>
  <rect x="454" y="660" width="144" height="34" rx="17" fill="#FFD166" fill-opacity="0.9"/>
  <text x="526" y="683" text-anchor="middle" font-family="Poppins, Arial, sans-serif" font-size="18" font-weight="700" fill="#C44569">Collector</text>
  <text x="454" y="733" font-family="Poppins, Arial, sans-serif" font-size="24" font-weight="700" fill="#C44569" fill-opacity="0.88">Rolo</text>
  <text x="454" y="759" font-family="Poppins, Arial, sans-serif" font-size="16" font-weight="600" fill="#C44569" fill-opacity="0.62">mystery blind box</text>
  <g transform="translate(548 446) scale(0.48)">
    
                <path d="M497 396c-2-46 18-84 56-108-6 42 2 78 22 106" fill="#FFF4D0" stroke="#C44569" stroke-width="10" stroke-linecap="round" stroke-linejoin="round"/>
                <path d="M705 396c2-46-18-84-56-108 6 42-2 78-22 106" fill="#FFF4D0" stroke="#C44569" stroke-width="10" stroke-linecap="round" stroke-linejoin="round"/>
    <circle cx="600" cy="494" r="168" fill="#FFF4D0" stroke="#C44569" stroke-opacity="0.08" stroke-width="10"/>
    <ellipse cx="600" cy="620" rx="122" ry="98" fill="white" fill-opacity="0.26"/>
    
                <circle cx="561" cy="534" r="16" fill="#2D2547"/>
                <circle cx="697" cy="534" r="16" fill="#2D2547"/>
                <path d="M587 602c28 34 56 34 84 0" stroke="#2D2547" stroke-width="10" stroke-linecap="round"/>
                <ellipse cx="629" cy="580" rx="14" ry="10" fill="#FF8CA1"/>
    <circle cx="515" cy="566" r="18" fill="#FFB4C5" fill-opacity="0.72"/>
    <circle cx="744" cy="566" r="18" fill="#FFB4C5" fill-opacity="0.72"/>
    <circle cx="445" cy="434" r="14" fill="white" fill-opacity="0.7"/>
    <circle cx="772" cy="452" r="12" fill="white" fill-opacity="0.7"/>
  </g>
  <rect x="801" y="634" width="78" height="172" rx="22" fill="white" fill-opacity="0.14"/>
  <text x="840" y="666" text-anchor="middle" font-family="Poppins, Arial, sans-serif" font-size="18" font-weight="700" fill="white" transform="rotate(90 840 666)">ROLO</text>
  <circle cx="842" cy="762" r="28" fill="#FFD166" fill-opacity="0.9"/>
  <text x="842" y="770" text-anchor="middle" font-family="Poppins, Arial, sans-serif" font-size="16" font-weight="800" fill="#C44569">CO</text>
  <path d="M388 806l118 76h406l-138-76H388Z" fill="#FDE2E4" fill-opacity="0.42"/>
  <path d="M774 806l138 76v-4l-138-72v0Z" fill="#C44569" fill-opacity="0.24"/>
  <path d="M388 538l386 0" stroke="#C44569" stroke-opacity="0.12" stroke-width="4"/>
  <path d="M388 806l386 0" stroke="#C44569" stroke-opacity="0.12" stroke-width="4"/>
  <path d="M774 538v268" stroke="white" stroke-opacity="0.18" stroke-width="4"/>
  <text x="120" y="980" font-family="Poppins, Arial, sans-serif" font-size="92" font-weight="700" fill="#C44569">Berry Bunny Plush Collector</text>
  <text x="120" y="1064" font-family="Poppins, Arial, sans-serif" font-size="38" font-weight="500" fill="#C44569" fill-opacity="0.88">Plush Friends edition</text>
  <rect x="120" y="196" width="270" height="270" rx="46" fill="white" fill-opacity="0.16"/>
  <text x="255" y="314" text-anchor="middle" font-family="Poppins, Arial, sans-serif" font-size="104" font-weight="700" fill="#C44569" fill-opacity="0.92">CO</text>
  <text x="255" y="380" text-anchor="middle" font-family="Poppins, Arial, sans-serif" font-size="28" font-weight="600" fill="#C44569" fill-opacity="0.72">MilkyBloom Toyverse</text>
</svg>